<?xml version="1.0" encoding="utf-8"?>
<!-- Generator: Adobe Illustrator 27.0.0, SVG Export Plug-In . SVG Version: 6.00 Build 0)  -->
<svg version="1.1" id="Layer_1" xmlns="http://www.w3.org/2000/svg" xmlns:xlink="http://www.w3.org/1999/xlink" x="0px" y="0px"
	 viewBox="0 0 820 162" style="enable-background:new 0 0 820 162;" xml:space="preserve">
<style type="text/css">
	.st0{opacity:0.4;enable-background:new    ;}
	.st1{fill:#FFFFFF;}
	.st2{fill:#333333;}
	.st3{fill:#404040;}
	.st4{fill:#F5F5F5;}
	.st5{fill:#EB0028;}
	.st6{fill:none;stroke:#222222;}
	.st7{font-family:'OpenSans-Medium';}
	.st8{font-size:15px;}
</style>
<g id="Group_9890" transform="translate(20 -118)">
	<g id="Group_10613" transform="translate(0 5)">
		<path id="Rectangle_617" class="st0" d="M-13.6,113h807.1c3.6,0,6.4,2.9,6.4,6.4v149.1c0,3.6-2.9,6.4-6.4,6.4H-13.6
			c-3.6,0-6.4-2.9-6.4-6.4V119.4C-20,115.9-17.1,113-13.6,113z"/>
		<g id="Group_10610" transform="translate(-51 121)">
			<g id="Rectangle_264" transform="translate(565 335)">
				<path class="st1" d="M-285-318h520c13.8,0,25,11.2,25,25l0,0c0,13.8-11.2,25-25,25h-520c-13.8,0-25-11.2-25-25l0,0
					C-310-306.8-298.8-318-285-318z"/>
			</g>
			<g>
				<g>
					<g>
						<path class="st2" d="M283.2,45.7c0,0.6-0.2,1.2-0.5,1.6c-0.3,0.4-0.8,0.8-1.3,1s-1.2,0.4-2,0.4c-0.4,0-0.8,0-1.2-0.1
							s-0.7-0.1-1-0.2c-0.3-0.1-0.6-0.2-0.8-0.3V47c0.4,0.2,0.8,0.3,1.3,0.4c0.5,0.1,1.1,0.2,1.7,0.2c0.5,0,1-0.1,1.4-0.2
							c0.4-0.1,0.7-0.4,0.8-0.6c0.2-0.3,0.3-0.6,0.3-1s-0.1-0.7-0.2-0.9c-0.2-0.2-0.4-0.5-0.8-0.7s-0.9-0.4-1.5-0.6
							c-0.5-0.2-0.9-0.3-1.2-0.5c-0.3-0.2-0.6-0.4-0.9-0.7s-0.4-0.5-0.5-0.8s-0.2-0.7-0.2-1.1c0-0.6,0.1-1.1,0.4-1.5
							s0.7-0.7,1.2-0.9s1.1-0.3,1.8-0.3c0.6,0,1.1,0.1,1.6,0.2c0.5,0.1,0.9,0.3,1.3,0.4l-0.4,1.1c-0.4-0.2-0.8-0.3-1.2-0.4
							c-0.4-0.1-0.9-0.2-1.3-0.2s-0.8,0.1-1.2,0.2c-0.3,0.1-0.6,0.3-0.7,0.6s-0.2,0.5-0.2,0.9s0.1,0.7,0.2,0.9
							c0.2,0.2,0.4,0.5,0.8,0.7c0.3,0.2,0.8,0.4,1.4,0.6c0.6,0.2,1.2,0.5,1.6,0.7c0.4,0.3,0.8,0.6,1,0.9
							C283.1,44.7,283.2,45.1,283.2,45.7z"/>
						<path class="st2" d="M288.3,40.4c0.7,0,1.3,0.2,1.8,0.5s0.9,0.7,1.1,1.3c0.3,0.5,0.4,1.2,0.4,1.9v0.8H286
							c0,0.9,0.2,1.7,0.7,2.2s1.1,0.7,1.9,0.7c0.5,0,1,0,1.3-0.1c0.4-0.1,0.8-0.2,1.2-0.4v1.1c-0.4,0.2-0.8,0.3-1.2,0.4
							c-0.4,0.1-0.9,0.1-1.4,0.1c-0.8,0-1.4-0.2-2-0.5s-1-0.8-1.3-1.4s-0.5-1.4-0.5-2.2c0-0.9,0.1-1.6,0.4-2.2
							c0.3-0.6,0.7-1.1,1.2-1.5C286.9,40.5,287.6,40.4,288.3,40.4z M288.3,41.4c-0.6,0-1.2,0.2-1.6,0.6c-0.4,0.4-0.6,1-0.7,1.8h4.2
							c0-0.5-0.1-0.9-0.2-1.3c-0.1-0.4-0.4-0.6-0.7-0.8C289.1,41.5,288.7,41.4,288.3,41.4z"/>
						<path class="st2" d="M296.6,40.4c1,0,1.7,0.2,2.1,0.6s0.7,1.1,0.7,2.1v5.5h-0.9l-0.2-1.2h-0.1c-0.2,0.3-0.5,0.5-0.7,0.7
							s-0.5,0.3-0.8,0.4c-0.3,0.1-0.7,0.2-1.2,0.2s-0.9-0.1-1.3-0.3s-0.7-0.4-0.9-0.8c-0.2-0.3-0.3-0.8-0.3-1.3c0-0.8,0.3-1.4,1-1.8
							c0.6-0.4,1.6-0.7,2.9-0.7l1.4-0.1v-0.5c0-0.7-0.1-1.2-0.4-1.5s-0.7-0.4-1.3-0.4c-0.4,0-0.8,0.1-1.2,0.2s-0.7,0.3-1.1,0.4
							l-0.4-0.9c0.4-0.2,0.8-0.3,1.2-0.5C295.6,40.4,296.1,40.4,296.6,40.4z M298.2,44.6l-1.2,0.1c-1,0-1.7,0.2-2.1,0.5
							s-0.6,0.7-0.6,1.2s0.1,0.8,0.4,1s0.6,0.3,1.1,0.3c0.7,0,1.3-0.2,1.8-0.6s0.7-1,0.7-1.8L298.2,44.6L298.2,44.6z"/>
						<path class="st2" d="M305.6,40.4c0.2,0,0.3,0,0.5,0s0.3,0,0.5,0.1l-0.2,1.1c-0.1,0-0.3-0.1-0.4-0.1s-0.3,0-0.5,0
							c-0.3,0-0.6,0.1-0.9,0.2c-0.3,0.1-0.5,0.3-0.8,0.6c-0.2,0.2-0.4,0.5-0.5,0.9c-0.1,0.3-0.2,0.7-0.2,1.1v4.3h-1.2v-8h1l0.1,1.5
							h0.1c0.2-0.3,0.4-0.6,0.6-0.8s0.5-0.4,0.8-0.6C304.9,40.4,305.2,40.4,305.6,40.4z"/>
						<path class="st2" d="M311.3,48.7c-0.7,0-1.4-0.1-1.9-0.4c-0.6-0.3-1-0.8-1.3-1.4s-0.5-1.4-0.5-2.3c0-1,0.2-1.8,0.5-2.4
							c0.3-0.6,0.8-1.1,1.3-1.4s1.2-0.4,1.9-0.4c0.4,0,0.8,0,1.2,0.1c0.4,0.1,0.7,0.2,0.9,0.3l-0.4,1c-0.2-0.1-0.5-0.2-0.8-0.3
							s-0.6-0.1-0.9-0.1c-0.6,0-1,0.1-1.4,0.4c-0.4,0.2-0.6,0.6-0.8,1.1c-0.2,0.5-0.3,1-0.3,1.7c0,0.6,0.1,1.2,0.3,1.7
							c0.2,0.5,0.4,0.8,0.8,1.1c0.4,0.2,0.8,0.4,1.3,0.4c0.4,0,0.8,0,1.1-0.1c0.3-0.1,0.7-0.2,0.9-0.3v1.1c-0.3,0.1-0.6,0.2-0.9,0.3
							C312.1,48.6,311.7,48.7,311.3,48.7z"/>
						<path class="st2" d="M316.5,37.1v3.4c0,0.2,0,0.4,0,0.6c0,0.2,0,0.4-0.1,0.5h0.1c0.2-0.3,0.4-0.5,0.6-0.7
							c0.3-0.2,0.5-0.3,0.9-0.4c0.3-0.1,0.7-0.2,1-0.2c0.6,0,1.2,0.1,1.6,0.3s0.8,0.5,1,1c0.2,0.4,0.3,1,0.3,1.7v5.2h-1.2v-5.1
							c0-0.7-0.2-1.2-0.5-1.5s-0.8-0.5-1.4-0.5s-1.1,0.1-1.4,0.3c-0.4,0.2-0.6,0.6-0.8,1c-0.2,0.4-0.2,1-0.2,1.6v4.2h-1.2V37.1
							H316.5z"/>
						<path class="st2" d="M329.6,37.1V40c0,0.3,0,0.6,0,1c0,0.3,0,0.5,0,0.7h0.1c0.2-0.4,0.5-0.7,1-0.9s0.9-0.4,1.6-0.4
							c1,0,1.8,0.3,2.4,1s0.9,1.7,0.9,3.1c0,0.9-0.1,1.7-0.4,2.3s-0.7,1.1-1.2,1.4c-0.5,0.3-1.1,0.5-1.8,0.5c-0.6,0-1.2-0.1-1.6-0.4
							c-0.4-0.2-0.7-0.5-0.9-0.9h-0.1l-0.2,1.1h-0.9V37.1H329.6z M331.9,41.4c-0.6,0-1,0.1-1.4,0.3c-0.3,0.2-0.6,0.6-0.7,1
							c-0.1,0.5-0.2,1-0.2,1.7v0.1c0,1,0.2,1.8,0.5,2.3s0.9,0.8,1.8,0.8c0.7,0,1.3-0.3,1.7-0.8c0.4-0.5,0.6-1.3,0.6-2.3
							s-0.2-1.8-0.6-2.3C333.2,41.7,332.7,41.4,331.9,41.4z"/>
						<path class="st2" d="M336.3,40.5h1.3l1.8,4.7c0.1,0.3,0.2,0.5,0.3,0.8c0.1,0.3,0.2,0.5,0.2,0.7c0.1,0.2,0.1,0.5,0.2,0.7h0.1
							c0.1-0.2,0.2-0.6,0.3-1c0.1-0.4,0.3-0.8,0.4-1.2l1.7-4.7h1.3l-3.5,9.2c-0.2,0.5-0.4,0.9-0.6,1.3c-0.2,0.4-0.5,0.6-0.9,0.8
							s-0.8,0.3-1.3,0.3c-0.2,0-0.4,0-0.6,0s-0.3-0.1-0.5-0.1v-1c0.1,0,0.2,0,0.4,0.1c0.2,0,0.3,0,0.5,0c0.3,0,0.6-0.1,0.8-0.2
							c0.2-0.1,0.4-0.3,0.6-0.5s0.3-0.5,0.4-0.8l0.4-1.1L336.3,40.5z"/>
						<path class="st2" d="M351.9,40.4c1,0,1.7,0.2,2.1,0.6s0.7,1.1,0.7,2.1v5.5h-0.9l-0.2-1.2h-0.1c-0.2,0.3-0.5,0.5-0.7,0.7
							s-0.5,0.3-0.8,0.4c-0.3,0.1-0.7,0.2-1.2,0.2s-0.9-0.1-1.3-0.3s-0.7-0.4-0.9-0.8c-0.2-0.3-0.3-0.8-0.3-1.3c0-0.8,0.3-1.4,1-1.8
							c0.6-0.4,1.6-0.7,2.9-0.7l1.4-0.1v-0.5c0-0.7-0.1-1.2-0.4-1.5s-0.7-0.4-1.3-0.4c-0.4,0-0.8,0.1-1.2,0.2s-0.7,0.3-1.1,0.4
							l-0.4-0.9c0.4-0.2,0.8-0.3,1.2-0.5C350.9,40.4,351.4,40.4,351.9,40.4z M353.6,44.6l-1.2,0.1c-1,0-1.7,0.2-2.1,0.5
							s-0.6,0.7-0.6,1.2s0.1,0.8,0.4,1s0.6,0.3,1.1,0.3c0.7,0,1.3-0.2,1.8-0.6s0.7-1,0.7-1.8L353.6,44.6L353.6,44.6z"/>
						<path class="st2" d="M360.9,40.4c0.2,0,0.3,0,0.5,0s0.3,0,0.5,0.1l-0.2,1.1c-0.1,0-0.3-0.1-0.4-0.1c-0.2,0-0.3,0-0.5,0
							c-0.3,0-0.6,0.1-0.9,0.2c-0.3,0.1-0.5,0.3-0.8,0.6c-0.2,0.2-0.4,0.5-0.5,0.9c-0.1,0.3-0.2,0.7-0.2,1.1v4.3h-1.2v-8h1l0.1,1.5
							h0.1c0.2-0.3,0.4-0.6,0.6-0.8s0.5-0.4,0.8-0.6C360.2,40.4,360.5,40.4,360.9,40.4z"/>
						<path class="st2" d="M366.5,40.4c0.7,0,1.3,0.2,1.8,0.5s0.9,0.7,1.1,1.3c0.3,0.5,0.4,1.2,0.4,1.9v0.8h-5.5
							c0,0.9,0.2,1.7,0.7,2.2s1.1,0.7,1.9,0.7c0.5,0,1,0,1.3-0.1c0.4-0.1,0.8-0.2,1.2-0.4v1.1c-0.4,0.2-0.8,0.3-1.2,0.4
							c-0.4,0.1-0.9,0.1-1.4,0.1c-0.8,0-1.4-0.2-2-0.5s-1-0.8-1.3-1.4s-0.5-1.4-0.5-2.2c0-0.9,0.1-1.6,0.4-2.2
							c0.3-0.6,0.7-1.1,1.2-1.5C365.2,40.5,365.8,40.4,366.5,40.4z M366.5,41.4c-0.6,0-1.2,0.2-1.6,0.6c-0.4,0.4-0.6,1-0.7,1.8h4.2
							c0-0.5-0.1-0.9-0.2-1.3c-0.1-0.4-0.4-0.6-0.7-0.8C367.3,41.5,366.9,41.4,366.5,41.4z"/>
						<path class="st2" d="M374.8,40.4c1,0,1.7,0.2,2.1,0.6s0.7,1.1,0.7,2.1v5.5h-0.9l-0.2-1.2h-0.1c-0.2,0.3-0.5,0.5-0.7,0.7
							s-0.5,0.3-0.8,0.4c-0.3,0.1-0.7,0.2-1.2,0.2s-0.9-0.1-1.3-0.3s-0.7-0.4-0.9-0.8c-0.2-0.3-0.3-0.8-0.3-1.3c0-0.8,0.3-1.4,1-1.8
							c0.6-0.4,1.6-0.7,2.9-0.7l1.4-0.1v-0.5c0-0.7-0.1-1.2-0.4-1.5s-0.7-0.4-1.3-0.4c-0.4,0-0.8,0.1-1.2,0.2s-0.7,0.3-1.1,0.4
							l-0.4-0.9c0.4-0.2,0.8-0.3,1.2-0.5C373.8,40.4,374.3,40.4,374.8,40.4z M376.5,44.6l-1.2,0.1c-1,0-1.7,0.2-2.1,0.5
							s-0.6,0.7-0.6,1.2s0.1,0.8,0.4,1s0.6,0.3,1.1,0.3c0.7,0,1.3-0.2,1.8-0.6s0.7-1,0.7-1.8L376.5,44.6L376.5,44.6z"/>
						<path class="st2" d="M391,44.5c0,0.7-0.1,1.2-0.3,1.8c-0.2,0.5-0.4,1-0.7,1.3s-0.7,0.6-1.2,0.8s-1,0.3-1.5,0.3s-1-0.1-1.5-0.3
							c-0.4-0.2-0.8-0.5-1.2-0.8c-0.3-0.4-0.6-0.8-0.8-1.3c-0.2-0.5-0.3-1.1-0.3-1.8c0-0.9,0.1-1.6,0.4-2.2c0.3-0.6,0.7-1.1,1.3-1.4
							c0.6-0.3,1.2-0.5,2-0.5c0.7,0,1.4,0.2,1.9,0.5s1,0.8,1.3,1.4C390.8,42.9,391,43.6,391,44.5z M384.9,44.5
							c0,0.6,0.1,1.2,0.3,1.7c0.2,0.5,0.4,0.8,0.8,1.1s0.8,0.4,1.4,0.4s1-0.1,1.4-0.4c0.4-0.3,0.6-0.6,0.8-1.1
							c0.2-0.5,0.3-1,0.3-1.7c0-0.6-0.1-1.2-0.3-1.7c-0.2-0.5-0.4-0.8-0.8-1.1s-0.8-0.4-1.4-0.4c-0.8,0-1.4,0.3-1.8,0.8
							C385.1,42.8,384.9,43.5,384.9,44.5z"/>
						<path class="st2" d="M396.7,40.4c0.2,0,0.3,0,0.5,0s0.3,0,0.5,0.1l-0.2,1.1c-0.1,0-0.3-0.1-0.4-0.1c-0.2,0-0.3,0-0.5,0
							c-0.3,0-0.6,0.1-0.9,0.2c-0.3,0.1-0.5,0.3-0.8,0.6c-0.2,0.2-0.4,0.5-0.5,0.9c-0.1,0.3-0.2,0.7-0.2,1.1v4.3H393v-8h1l0.1,1.5
							h0.1c0.2-0.3,0.4-0.6,0.6-0.8s0.5-0.4,0.8-0.6C396,40.4,396.4,40.4,396.7,40.4z"/>
						<path class="st2" d="M406.9,40.4c1,0,1.8,0.3,2.4,1s0.9,1.7,0.9,3.1c0,0.9-0.1,1.7-0.4,2.3s-0.7,1.1-1.2,1.4
							c-0.5,0.3-1.1,0.5-1.8,0.5c-0.4,0-0.8-0.1-1.1-0.2c-0.3-0.1-0.6-0.3-0.8-0.5c-0.2-0.2-0.4-0.4-0.6-0.6h-0.1
							c0,0.2,0,0.4,0.1,0.7c0,0.3,0,0.5,0,0.7v3.3h-1.2V40.5h1l0.2,1.2h0.1c0.2-0.2,0.3-0.5,0.6-0.7c0.2-0.2,0.5-0.4,0.8-0.5
							C406.1,40.4,406.4,40.4,406.9,40.4z M406.7,41.4c-0.6,0-1,0.1-1.3,0.3s-0.6,0.5-0.7,1c-0.2,0.4-0.2,1-0.2,1.6v0.2
							c0,0.7,0.1,1.3,0.2,1.7c0.1,0.5,0.4,0.8,0.7,1.1c0.3,0.2,0.8,0.4,1.4,0.4c0.5,0,0.9-0.1,1.2-0.4c0.3-0.3,0.6-0.6,0.7-1.1
							c0.2-0.5,0.2-1,0.2-1.7c0-0.9-0.2-1.7-0.6-2.3C408,41.7,407.4,41.4,406.7,41.4z"/>
						<path class="st2" d="M415.9,40.4c0.2,0,0.3,0,0.5,0s0.3,0,0.5,0.1l-0.2,1.1c-0.1,0-0.3-0.1-0.4-0.1c-0.2,0-0.3,0-0.5,0
							c-0.3,0-0.6,0.1-0.9,0.2c-0.3,0.1-0.5,0.3-0.8,0.6c-0.2,0.2-0.4,0.5-0.5,0.9c-0.1,0.3-0.2,0.7-0.2,1.1v4.3h-1.2v-8h1l0.1,1.5
							h0.1c0.2-0.3,0.4-0.6,0.6-0.8s0.5-0.4,0.8-0.6C415.2,40.4,415.6,40.4,415.9,40.4z"/>
						<path class="st2" d="M425.3,44.5c0,0.7-0.1,1.2-0.3,1.8c-0.2,0.5-0.4,1-0.7,1.3s-0.7,0.6-1.2,0.8s-1,0.3-1.5,0.3
							s-1-0.1-1.5-0.3c-0.4-0.2-0.8-0.5-1.2-0.8c-0.3-0.4-0.6-0.8-0.8-1.3c-0.2-0.5-0.3-1.1-0.3-1.8c0-0.9,0.1-1.6,0.4-2.2
							c0.3-0.6,0.7-1.1,1.3-1.4c0.6-0.3,1.2-0.5,2-0.5c0.7,0,1.4,0.2,1.9,0.5s1,0.8,1.3,1.4C425.2,42.9,425.3,43.6,425.3,44.5z
							 M419.2,44.5c0,0.6,0.1,1.2,0.3,1.7c0.2,0.5,0.4,0.8,0.8,1.1s0.8,0.4,1.4,0.4s1-0.1,1.4-0.4c0.4-0.3,0.6-0.6,0.8-1.1
							c0.2-0.5,0.3-1,0.3-1.7c0-0.6-0.1-1.2-0.3-1.7c-0.2-0.5-0.4-0.8-0.8-1.1s-0.8-0.4-1.4-0.4c-0.8,0-1.4,0.3-1.8,0.8
							C419.4,42.8,419.2,43.5,419.2,44.5z"/>
						<path class="st2" d="M426.5,52.1c-0.2,0-0.5,0-0.7-0.1c-0.2,0-0.3-0.1-0.5-0.1v-1c0.2,0,0.3,0.1,0.5,0.1s0.3,0,0.5,0
							c0.3,0,0.6-0.1,0.8-0.3s0.3-0.5,0.3-1v-9.3h1.2v9.3c0,0.5-0.1,0.9-0.2,1.3c-0.2,0.3-0.4,0.6-0.7,0.8S427,52.1,426.5,52.1z
							 M427.3,38.3c0-0.3,0.1-0.5,0.2-0.6s0.3-0.2,0.5-0.2s0.4,0.1,0.5,0.2c0.1,0.1,0.2,0.3,0.2,0.6s-0.1,0.5-0.2,0.6
							s-0.3,0.2-0.5,0.2s-0.4-0.1-0.5-0.2C427.4,38.8,427.3,38.6,427.3,38.3z"/>
						<path class="st2" d="M434.3,40.4c0.7,0,1.3,0.2,1.8,0.5s0.9,0.7,1.1,1.3c0.3,0.5,0.4,1.2,0.4,1.9v0.8H432
							c0,0.9,0.2,1.7,0.7,2.2s1.1,0.7,1.9,0.7c0.5,0,1,0,1.3-0.1c0.4-0.1,0.8-0.2,1.2-0.4v1.1c-0.4,0.2-0.8,0.3-1.2,0.4
							c-0.4,0.1-0.9,0.1-1.4,0.1c-0.8,0-1.4-0.2-2-0.5s-1-0.8-1.3-1.4s-0.5-1.4-0.5-2.2c0-0.9,0.1-1.6,0.4-2.2
							c0.3-0.6,0.7-1.1,1.2-1.5C433,40.5,433.6,40.4,434.3,40.4z M434.3,41.4c-0.6,0-1.2,0.2-1.6,0.6c-0.4,0.4-0.6,1-0.7,1.8h4.2
							c0-0.5-0.1-0.9-0.2-1.3c-0.1-0.4-0.4-0.6-0.7-0.8C435.1,41.5,434.8,41.4,434.3,41.4z"/>
						<path class="st2" d="M442.9,48.7c-0.7,0-1.4-0.1-1.9-0.4c-0.6-0.3-1-0.8-1.3-1.4c-0.3-0.6-0.5-1.4-0.5-2.3
							c0-1,0.2-1.8,0.5-2.4c0.3-0.6,0.8-1.1,1.3-1.4s1.2-0.4,1.9-0.4c0.4,0,0.8,0,1.2,0.1c0.4,0.1,0.7,0.2,0.9,0.3l-0.4,1
							c-0.2-0.1-0.5-0.2-0.8-0.3s-0.6-0.1-0.9-0.1c-0.6,0-1,0.1-1.4,0.4c-0.4,0.2-0.6,0.6-0.8,1.1c-0.2,0.5-0.3,1-0.3,1.7
							c0,0.6,0.1,1.2,0.3,1.7c0.2,0.5,0.4,0.8,0.8,1.1c0.4,0.2,0.8,0.4,1.3,0.4c0.4,0,0.8,0,1.1-0.1c0.3-0.1,0.7-0.2,0.9-0.3v1.1
							c-0.3,0.1-0.6,0.2-0.9,0.3C443.7,48.6,443.3,48.7,442.9,48.7z"/>
						<path class="st2" d="M449.4,47.7c0.2,0,0.4,0,0.6-0.1c0.2,0,0.4-0.1,0.5-0.1v0.9c-0.1,0.1-0.3,0.1-0.6,0.2
							c-0.3,0-0.5,0.1-0.7,0.1c-0.4,0-0.8-0.1-1.2-0.2c-0.3-0.1-0.6-0.4-0.8-0.8c-0.2-0.4-0.3-0.8-0.3-1.5v-4.8h-1.1v-0.6l1.2-0.5
							l0.5-1.7h0.7v1.9h2.4v1h-2.4v4.7c0,0.5,0.1,0.9,0.3,1.1C448.7,47.6,449,47.7,449.4,47.7z"/>
						<path class="st2" d="M459.9,40.4c1,0,1.7,0.2,2.2,0.7s0.7,1.2,0.7,2.2v5.2h-1.2v-5.1c0-0.7-0.2-1.2-0.5-1.5s-0.8-0.5-1.4-0.5
							c-0.9,0-1.5,0.3-1.9,0.8s-0.5,1.2-0.5,2.2v4.2h-1.2v-8h1l0.2,1.2h0.1c0.2-0.3,0.4-0.5,0.7-0.7c0.3-0.2,0.6-0.3,0.9-0.4
							C459.2,40.4,459.5,40.4,459.9,40.4z"/>
						<path class="st2" d="M468.3,40.4c1,0,1.7,0.2,2.1,0.6s0.7,1.1,0.7,2.1v5.5h-0.9l-0.2-1.2h-0.1c-0.2,0.3-0.5,0.5-0.7,0.7
							s-0.5,0.3-0.8,0.4c-0.3,0.1-0.7,0.2-1.2,0.2s-0.9-0.1-1.3-0.3s-0.7-0.4-0.9-0.8c-0.2-0.3-0.3-0.8-0.3-1.3c0-0.8,0.3-1.4,1-1.8
							c0.6-0.4,1.6-0.7,2.9-0.7l1.4-0.1v-0.5c0-0.7-0.1-1.2-0.4-1.5s-0.7-0.4-1.3-0.4c-0.4,0-0.8,0.1-1.2,0.2s-0.7,0.3-1.1,0.4
							l-0.4-0.9c0.4-0.2,0.8-0.3,1.2-0.5C467.3,40.4,467.8,40.4,468.3,40.4z M469.9,44.6l-1.2,0.1c-1,0-1.7,0.2-2.1,0.5
							s-0.6,0.7-0.6,1.2s0.1,0.8,0.4,1s0.6,0.3,1.1,0.3c0.7,0,1.3-0.2,1.8-0.6s0.7-1,0.7-1.8L469.9,44.6L469.9,44.6z"/>
						<path class="st2" d="M482.3,40.4c0.9,0,1.5,0.2,2,0.7c0.4,0.5,0.7,1.2,0.7,2.2v5.3h-1.2v-5.2c0-0.6-0.1-1.1-0.4-1.5
							c-0.3-0.3-0.7-0.5-1.2-0.5c-0.8,0-1.3,0.2-1.7,0.7s-0.5,1.1-0.5,2v4.5h-1.2v-5.2c0-0.4-0.1-0.8-0.2-1.1s-0.3-0.5-0.6-0.6
							c-0.2-0.1-0.6-0.2-0.9-0.2c-0.5,0-1,0.1-1.3,0.3s-0.6,0.5-0.7,1c-0.1,0.4-0.2,1-0.2,1.6v4.2h-1.2v-8h1l0.2,1.1h0.1
							c0.2-0.3,0.4-0.5,0.6-0.7s0.5-0.3,0.8-0.4s0.6-0.1,1-0.1c0.6,0,1.1,0.1,1.5,0.3s0.7,0.6,0.9,1h0.1c0.3-0.5,0.6-0.8,1.1-1
							C481.3,40.5,481.8,40.4,482.3,40.4z"/>
						<path class="st2" d="M490.6,40.4c0.7,0,1.3,0.2,1.8,0.5s0.9,0.7,1.1,1.3c0.3,0.5,0.4,1.2,0.4,1.9v0.8h-5.5
							c0,0.9,0.2,1.7,0.7,2.2s1.1,0.7,1.9,0.7c0.5,0,1,0,1.3-0.1c0.4-0.1,0.8-0.2,1.2-0.4v1.1c-0.4,0.2-0.8,0.3-1.2,0.4
							c-0.4,0.1-0.9,0.1-1.4,0.1c-0.8,0-1.4-0.2-2-0.5s-1-0.8-1.3-1.4s-0.5-1.4-0.5-2.2c0-0.9,0.1-1.6,0.4-2.2
							c0.3-0.6,0.7-1.1,1.2-1.5C489.2,40.5,489.9,40.4,490.6,40.4z M490.6,41.4c-0.6,0-1.2,0.2-1.6,0.6c-0.4,0.4-0.6,1-0.7,1.8h4.2
							c0-0.5-0.1-0.9-0.2-1.3c-0.1-0.4-0.4-0.6-0.7-0.8C491.4,41.5,491,41.4,490.6,41.4z"/>
					</g>
				</g>
			</g>
		</g>
		<g id="Group_10611" transform="translate(-58 124)">
			<g id="Group_10546" transform="translate(433 303)">
				<g id="Rectangle_264-2" transform="translate(138 93)">
					<path class="st1" d="M-305-312h170c2.8,0,5,2.5,5,5.8v32.4c0,3.2-2.2,5.8-5,5.8h-170c-2.8,0-5-2.5-5-5.8v-32.4
						C-310-309.5-307.8-312-305-312z"/>
				</g>
				<g>
					<g>
						<g>
							<path class="st2" d="M-150.2-191.7h-1.4l-5.8-9h-0.1c0,0.2,0,0.5,0.1,0.8c0,0.3,0,0.6,0,1c0,0.3,0,0.7,0,1.1v6.2h-1.2v-10.7
								h1.4l5.8,9h0.1c0-0.2,0-0.4,0-0.7s0-0.7,0-1c0-0.4,0-0.7,0-1v-6.2h1.2v10.5H-150.2z"/>
							<path class="st2" d="M-140.5-195.8c0,0.7-0.1,1.2-0.3,1.8c-0.2,0.5-0.4,1-0.7,1.3s-0.7,0.6-1.2,0.8s-1,0.3-1.5,0.3
								s-1-0.1-1.5-0.3c-0.4-0.2-0.8-0.5-1.2-0.8s-0.6-0.8-0.8-1.3s-0.3-1.1-0.3-1.8c0-0.9,0.1-1.6,0.4-2.2c0.3-0.6,0.7-1.1,1.3-1.4
								c0.6-0.3,1.2-0.5,2-0.5c0.7,0,1.4,0.2,1.9,0.5s1,0.8,1.3,1.4C-140.7-197.4-140.5-196.6-140.5-195.8z M-146.6-195.8
								c0,0.6,0.1,1.2,0.3,1.7s0.4,0.8,0.8,1.1s0.8,0.4,1.4,0.4c0.6,0,1-0.1,1.4-0.4c0.4-0.3,0.6-0.6,0.8-1.1s0.3-1,0.3-1.7
								c0-0.6-0.1-1.2-0.3-1.7s-0.4-0.8-0.8-1.1s-0.8-0.4-1.4-0.4c-0.8,0-1.4,0.3-1.8,0.8C-146.4-197.5-146.6-196.7-146.6-195.8z"/>
							<path class="st2" d="M-138.6-192.5c0-0.3,0.1-0.6,0.2-0.7c0.2-0.1,0.4-0.2,0.6-0.2c0.2,0,0.5,0.1,0.6,0.2
								c0.2,0.1,0.3,0.4,0.3,0.7s-0.1,0.6-0.3,0.7c-0.2,0.2-0.4,0.2-0.6,0.2c-0.2,0-0.4-0.1-0.6-0.2
								C-138.5-191.9-138.6-192.2-138.6-192.5z"/>
							<path class="st2" d="M-123.6-195.8c0,0.7-0.1,1.2-0.3,1.8c-0.2,0.5-0.4,1-0.7,1.3s-0.7,0.6-1.2,0.8s-1,0.3-1.5,0.3
								s-1-0.1-1.5-0.3c-0.4-0.2-0.8-0.5-1.2-0.8s-0.6-0.8-0.8-1.3s-0.3-1.1-0.3-1.8c0-0.9,0.1-1.6,0.4-2.2c0.3-0.6,0.7-1.1,1.3-1.4
								c0.6-0.3,1.2-0.5,2-0.5c0.7,0,1.4,0.2,1.9,0.5s1,0.8,1.3,1.4C-123.8-197.4-123.6-196.6-123.6-195.8z M-129.8-195.8
								c0,0.6,0.1,1.2,0.3,1.7s0.4,0.8,0.8,1.1s0.8,0.4,1.4,0.4s1-0.1,1.4-0.4c0.4-0.3,0.6-0.6,0.8-1.1c0.2-0.5,0.3-1,0.3-1.7
								c0-0.6-0.1-1.2-0.3-1.7c-0.2-0.5-0.4-0.8-0.8-1.1s-0.8-0.4-1.4-0.4c-0.8,0-1.4,0.3-1.8,0.8
								C-129.6-197.5-129.8-196.7-129.8-195.8z"/>
							<path class="st2" d="M-118-198.8h-2v7.1h-1.2v-7.1h-1.4v-0.6l1.4-0.4v-0.5c0-0.7,0.1-1.2,0.3-1.6c0.2-0.4,0.5-0.7,0.9-0.9
								s0.8-0.3,1.4-0.3c0.3,0,0.6,0,0.8,0.1c0.3,0.1,0.5,0.1,0.7,0.2l-0.3,1c-0.2-0.1-0.4-0.1-0.6-0.2c-0.2,0-0.4-0.1-0.6-0.1
								c-0.5,0-0.8,0.2-1,0.5s-0.3,0.8-0.3,1.4v0.6h2v0.8H-118z"/>
							<path class="st2" d="M-111.4-203.1v2.8c0,0.3,0,0.6,0,1c0,0.3,0,0.5,0,0.7h0.1c0.2-0.4,0.5-0.7,1-0.9s0.9-0.4,1.6-0.4
								c1,0,1.8,0.3,2.4,1s0.9,1.7,0.9,3.1c0,0.9-0.1,1.7-0.4,2.3s-0.7,1.1-1.2,1.4c-0.5,0.3-1.1,0.5-1.8,0.5
								c-0.6,0-1.2-0.1-1.6-0.4c-0.4-0.2-0.7-0.5-0.9-0.9h-0.1l-0.2,1.1h-0.9v-11.4L-111.4-203.1L-111.4-203.1z M-109-198.9
								c-0.6,0-1,0.1-1.4,0.3c-0.3,0.2-0.6,0.6-0.7,1c-0.1,0.5-0.2,1-0.2,1.7v0.1c0,1,0.2,1.8,0.5,2.3s0.9,0.8,1.8,0.8
								c0.7,0,1.3-0.3,1.7-0.8c0.4-0.5,0.6-1.3,0.6-2.3s-0.2-1.8-0.6-2.3C-107.7-198.6-108.3-198.9-109-198.9z"/>
							<path class="st2" d="M-100.3-199.9c0.7,0,1.3,0.2,1.8,0.5s0.9,0.7,1.1,1.3c0.3,0.5,0.4,1.2,0.4,1.9v0.8h-5.5
								c0,0.9,0.2,1.7,0.7,2.2s1.1,0.7,1.9,0.7c0.5,0,1,0,1.3-0.1c0.4-0.1,0.8-0.2,1.2-0.4v1.1c-0.4,0.2-0.8,0.3-1.2,0.4
								c-0.4,0.1-0.9,0.1-1.4,0.1c-0.8,0-1.4-0.2-2-0.5s-1-0.8-1.3-1.4s-0.5-1.4-0.5-2.2c0-0.9,0.1-1.6,0.4-2.2
								c0.3-0.6,0.7-1.1,1.2-1.5C-101.7-199.7-101-199.9-100.3-199.9z M-100.3-198.9c-0.6,0-1.2,0.2-1.6,0.6c-0.4,0.4-0.6,1-0.7,1.8
								h4.2c0-0.5-0.1-0.9-0.2-1.3c-0.1-0.4-0.4-0.6-0.7-0.8C-99.5-198.8-99.9-198.9-100.3-198.9z"/>
							<path class="st2" d="M-92.1-191.6c-1,0-1.8-0.3-2.4-1s-0.9-1.7-0.9-3.1c0-1.4,0.3-2.4,0.9-3.1c0.6-0.7,1.4-1.1,2.4-1.1
								c0.4,0,0.8,0.1,1.1,0.2c0.3,0.1,0.6,0.3,0.8,0.5c0.2,0.2,0.4,0.4,0.6,0.6h0.1c0-0.2,0-0.4-0.1-0.6s0-0.5,0-0.6v-3.2h1.2v11.4
								h-1l-0.2-1.1h-0.1c-0.2,0.2-0.3,0.5-0.6,0.7c-0.2,0.2-0.5,0.3-0.8,0.5C-91.3-191.6-91.7-191.6-92.1-191.6z M-92-192.6
								c0.9,0,1.5-0.2,1.8-0.7s0.5-1.2,0.5-2.2v-0.2c0-1-0.2-1.8-0.5-2.4c-0.3-0.5-1-0.8-1.8-0.8c-0.7,0-1.3,0.3-1.7,0.9
								c-0.4,0.6-0.6,1.4-0.6,2.3c0,1,0.2,1.7,0.6,2.3C-93.3-192.9-92.7-192.6-92-192.6z"/>
							<path class="st2" d="M-80.6-193.9c0,0.5-0.1,0.9-0.4,1.3c-0.3,0.3-0.6,0.6-1.1,0.8s-1,0.3-1.7,0.3c-0.6,0-1,0-1.5-0.1
								s-0.8-0.2-1.1-0.4v-1.1c0.3,0.2,0.7,0.3,1.2,0.4c0.5,0.1,0.9,0.2,1.4,0.2c0.7,0,1.2-0.1,1.5-0.3s0.5-0.5,0.5-0.9
								c0-0.2-0.1-0.4-0.2-0.6c-0.1-0.2-0.3-0.3-0.6-0.5c-0.3-0.2-0.7-0.3-1.2-0.5s-1-0.4-1.3-0.6c-0.4-0.2-0.7-0.4-0.9-0.7
								c-0.2-0.3-0.3-0.6-0.3-1.1c0-0.7,0.3-1.2,0.8-1.6c0.5-0.4,1.3-0.5,2.2-0.5c0.5,0,0.9,0,1.4,0.1c0.4,0.1,0.8,0.2,1.2,0.4
								l-0.4,1c-0.3-0.1-0.7-0.3-1.1-0.4s-0.8-0.1-1.1-0.1c-0.6,0-1,0.1-1.3,0.3s-0.5,0.4-0.5,0.8c0,0.2,0.1,0.5,0.2,0.6
								c0.1,0.2,0.4,0.3,0.7,0.5s0.7,0.3,1.2,0.5s0.9,0.4,1.3,0.6c0.4,0.2,0.6,0.4,0.8,0.7C-80.7-194.7-80.6-194.4-80.6-193.9z"/>
						</g>
					</g>
				</g>
				<path id="arrow7" d="M-15-199.4c0,0.2,0.1,0.3,0.2,0.4l4.8,4.8c0.2,0.2,0.6,0.2,0.8,0l4.8-4.8c0.2-0.2,0.2-0.6,0-0.8
					s-0.6-0.2-0.8,0l-4.4,4.4l-4.4-4.4c-0.2-0.2-0.6-0.2-0.8,0C-14.9-199.7-15-199.6-15-199.4z"/>
			</g>
			<g id="Group_10547" transform="translate(628 303)">
				<g id="Rectangle_264-3" transform="translate(138 93)">
					<path class="st1" d="M-305-312h170c2.8,0,5,2.5,5,5.8v32.4c0,3.2-2.2,5.8-5,5.8h-170c-2.8,0-5-2.5-5-5.8v-32.4
						C-310-309.5-307.8-312-305-312z"/>
				</g>
				<g>
					<g>
						<g>
							<path class="st2" d="M-151.8-191.7l-1.3-3.4h-4.3l-1.3,3.4h-1.3l4.2-10.8h1.1l4.2,10.8H-151.8z M-153.5-196.2l-1.3-3.4
								c0-0.1-0.1-0.2-0.1-0.4c-0.1-0.2-0.1-0.4-0.2-0.6s-0.1-0.4-0.2-0.5c0,0.2-0.1,0.4-0.2,0.6c-0.1,0.2-0.1,0.4-0.2,0.5
								c-0.1,0.2-0.1,0.3-0.1,0.4l-1.3,3.4H-153.5z"/>
							<path class="st2" d="M-145.6-199.9c0.2,0,0.3,0,0.5,0s0.3,0,0.5,0.1l-0.2,1.1c-0.1,0-0.3-0.1-0.4-0.1s-0.3,0-0.5,0
								c-0.3,0-0.6,0.1-0.9,0.2c-0.3,0.1-0.5,0.3-0.8,0.6c-0.2,0.2-0.4,0.5-0.5,0.9c-0.1,0.3-0.2,0.7-0.2,1.1v4.3h-1.2v-8h1l0.1,1.5
								h0.1c0.2-0.3,0.4-0.6,0.6-0.8c0.2-0.2,0.5-0.4,0.8-0.6C-146.3-199.8-146-199.9-145.6-199.9z"/>
							<path class="st2" d="M-140-199.9c0.7,0,1.3,0.2,1.8,0.5s0.9,0.7,1.1,1.3c0.3,0.5,0.4,1.2,0.4,1.9v0.8h-5.5
								c0,0.9,0.2,1.7,0.7,2.2s1.1,0.7,1.9,0.7c0.5,0,1,0,1.3-0.1c0.4-0.1,0.8-0.2,1.2-0.4v1.1c-0.4,0.2-0.8,0.3-1.2,0.4
								c-0.4,0.1-0.9,0.1-1.4,0.1c-0.8,0-1.4-0.2-2-0.5s-1-0.8-1.3-1.4c-0.3-0.6-0.5-1.4-0.5-2.2c0-0.9,0.1-1.6,0.4-2.2
								c0.3-0.6,0.7-1.1,1.2-1.5S-140.7-199.9-140-199.9z M-140-198.9c-0.6,0-1.2,0.2-1.6,0.6c-0.4,0.4-0.6,1-0.7,1.8h4.2
								c0-0.5-0.1-0.9-0.2-1.3c-0.1-0.4-0.4-0.6-0.7-0.8C-139.2-198.8-139.6-198.9-140-198.9z"/>
							<path class="st2" d="M-131.7-199.9c1,0,1.7,0.2,2.1,0.6s0.7,1.1,0.7,2.1v5.5h-0.9l-0.2-1.2h-0.1c-0.2,0.3-0.5,0.5-0.7,0.7
								s-0.5,0.3-0.8,0.4c-0.3,0.1-0.7,0.2-1.2,0.2s-0.9-0.1-1.3-0.3c-0.4-0.2-0.7-0.4-0.9-0.8c-0.2-0.3-0.3-0.8-0.3-1.3
								c0-0.8,0.3-1.4,1-1.8c0.6-0.4,1.6-0.7,2.9-0.7l1.4-0.1v-0.5c0-0.7-0.1-1.2-0.4-1.5c-0.3-0.3-0.7-0.4-1.3-0.4
								c-0.4,0-0.8,0.1-1.2,0.2s-0.7,0.3-1.1,0.4l-0.4-0.9c0.4-0.2,0.8-0.3,1.2-0.5C-132.7-199.8-132.2-199.9-131.7-199.9z
								 M-130.1-195.7l-1.2,0.1c-1,0-1.7,0.2-2.1,0.5s-0.6,0.7-0.6,1.2s0.1,0.8,0.4,1s0.6,0.3,1.1,0.3c0.7,0,1.3-0.2,1.8-0.6
								s0.7-1,0.7-1.8L-130.1-195.7L-130.1-195.7z"/>
						</g>
					</g>
				</g>
				<path id="arrow7-2" d="M-15-199.4c0,0.2,0.1,0.3,0.2,0.4l4.8,4.8c0.2,0.2,0.6,0.2,0.8,0l4.8-4.8c0.2-0.2,0.2-0.6,0-0.8
					s-0.6-0.2-0.8,0l-4.4,4.4l-4.4-4.4c-0.2-0.2-0.6-0.2-0.8,0C-14.9-199.7-15-199.6-15-199.4z"/>
			</g>
			<g id="Group_10548" transform="translate(823 303)">
				<g id="Rectangle_264-4" transform="translate(138 93)">
					<path class="st1" d="M-305-312h170c2.8,0,5,2.5,5,5.8v32.4c0,3.2-2.2,5.8-5,5.8h-170c-2.8,0-5-2.5-5-5.8v-32.4
						C-310-309.5-307.8-312-305-312z"/>
				</g>
				<g>
					<g>
						<g>
							<path class="st2" d="M-155.7-202.4c1.4,0,2.4,0.3,3,0.8s1,1.3,1,2.3c0,0.5-0.1,0.9-0.2,1.3c-0.1,0.4-0.4,0.8-0.7,1.1
								s-0.8,0.6-1.3,0.7c-0.5,0.2-1.2,0.3-2,0.3h-1.3v4.2h-1.2v-10.7L-155.7-202.4L-155.7-202.4z M-155.9-201.4h-1.4v4.4h1.2
								c0.7,0,1.3-0.1,1.7-0.2c0.5-0.1,0.8-0.4,1-0.7s0.3-0.8,0.3-1.3c0-0.7-0.2-1.2-0.7-1.6C-154.2-201.2-154.9-201.4-155.9-201.4z
								"/>
							<path class="st2" d="M-146-199.9c0.2,0,0.3,0,0.5,0s0.3,0,0.5,0.1l-0.2,1.1c-0.1,0-0.3-0.1-0.4-0.1c-0.2,0-0.3,0-0.5,0
								c-0.3,0-0.6,0.1-0.9,0.2c-0.3,0.1-0.5,0.3-0.8,0.6c-0.2,0.2-0.4,0.5-0.5,0.9c-0.1,0.3-0.2,0.7-0.2,1.1v4.3h-1.2v-8h1l0.1,1.5
								h0.1c0.2-0.3,0.4-0.6,0.6-0.8c0.2-0.2,0.5-0.4,0.8-0.6S-146.4-199.9-146-199.9z"/>
							<path class="st2" d="M-142.9-202.8c0.2,0,0.4,0.1,0.5,0.2c0.1,0.1,0.2,0.3,0.2,0.6s-0.1,0.5-0.2,0.6
								c-0.1,0.1-0.3,0.2-0.5,0.2s-0.4-0.1-0.5-0.2c-0.1-0.1-0.2-0.3-0.2-0.6s0.1-0.5,0.2-0.6C-143.3-202.7-143.2-202.8-142.9-202.8
								z M-142.3-199.8v8h-1.2v-8H-142.3z"/>
							<path class="st2" d="M-136.6-191.6c-0.7,0-1.4-0.1-1.9-0.4c-0.6-0.3-1-0.8-1.3-1.4c-0.3-0.6-0.5-1.4-0.5-2.3
								c0-1,0.2-1.8,0.5-2.4c0.3-0.6,0.8-1.1,1.3-1.4s1.2-0.4,1.9-0.4c0.4,0,0.8,0,1.2,0.1s0.7,0.2,0.9,0.3l-0.4,1
								c-0.2-0.1-0.5-0.2-0.8-0.3s-0.6-0.1-0.9-0.1c-0.6,0-1,0.1-1.4,0.4c-0.4,0.2-0.6,0.6-0.8,1.1s-0.3,1-0.3,1.7
								c0,0.6,0.1,1.2,0.3,1.7s0.4,0.8,0.8,1.1c0.4,0.2,0.8,0.4,1.3,0.4c0.4,0,0.8,0,1.2-0.1c0.3-0.1,0.7-0.2,0.9-0.3v1.1
								c-0.3,0.1-0.6,0.2-0.9,0.3C-135.7-191.6-136.1-191.6-136.6-191.6z"/>
							<path class="st2" d="M-129.5-199.9c0.7,0,1.3,0.2,1.8,0.5s0.9,0.7,1.1,1.3c0.3,0.5,0.4,1.2,0.4,1.9v0.8h-5.5
								c0,0.9,0.2,1.7,0.7,2.2s1.1,0.7,1.9,0.7c0.5,0,1,0,1.3-0.1c0.4-0.1,0.8-0.2,1.2-0.4v1.1c-0.4,0.2-0.8,0.3-1.2,0.4
								c-0.4,0.1-0.9,0.1-1.4,0.1c-0.8,0-1.4-0.2-2-0.5s-1-0.8-1.3-1.4s-0.5-1.4-0.5-2.2c0-0.9,0.1-1.6,0.4-2.2
								c0.3-0.6,0.7-1.1,1.2-1.5C-130.8-199.7-130.2-199.9-129.5-199.9z M-129.5-198.9c-0.6,0-1.2,0.2-1.6,0.6
								c-0.4,0.4-0.6,1-0.7,1.8h4.2c0-0.5-0.1-0.9-0.2-1.3c-0.1-0.4-0.4-0.6-0.7-0.8C-128.7-198.8-129.1-198.9-129.5-198.9z"/>
							<path class="st2" d="M-117.2-202.4c0.9,0,1.6,0.1,2.2,0.3s1,0.5,1.3,1s0.4,1,0.4,1.7c0,0.6-0.1,1-0.3,1.4
								c-0.2,0.4-0.5,0.7-0.8,0.9s-0.7,0.4-1.1,0.5l2.9,4.8h-1.5l-2.6-4.5h-2.2v4.5h-1.2v-10.7h2.9V-202.4z M-117.3-201.4h-1.6v4.1
								h1.7c0.9,0,1.5-0.2,1.9-0.5c0.4-0.4,0.6-0.9,0.6-1.6c0-0.7-0.2-1.2-0.7-1.5C-115.7-201.2-116.4-201.4-117.3-201.4z"/>
							<path class="st2" d="M-108-199.9c1,0,1.7,0.2,2.1,0.6s0.7,1.1,0.7,2.1v5.5h-0.9l-0.2-1.2h-0.1c-0.2,0.3-0.5,0.5-0.7,0.7
								s-0.5,0.3-0.8,0.4c-0.3,0.1-0.7,0.2-1.2,0.2s-0.9-0.1-1.3-0.3s-0.7-0.4-0.9-0.8c-0.2-0.3-0.3-0.8-0.3-1.3
								c0-0.8,0.3-1.4,1-1.8c0.6-0.4,1.6-0.7,2.9-0.7l1.4-0.1v-0.5c0-0.7-0.1-1.2-0.4-1.5s-0.7-0.4-1.3-0.4c-0.4,0-0.8,0.1-1.2,0.2
								s-0.7,0.3-1.1,0.4l-0.4-0.9c0.4-0.2,0.8-0.3,1.2-0.5C-109-199.8-108.5-199.9-108-199.9z M-106.4-195.7l-1.2,0.1
								c-1,0-1.7,0.2-2.1,0.5s-0.6,0.7-0.6,1.2s0.1,0.8,0.4,1s0.6,0.3,1.1,0.3c0.7,0,1.3-0.2,1.8-0.6s0.7-1,0.7-1.8v-0.7H-106.4z"/>
							<path class="st2" d="M-98.9-199.9c1,0,1.7,0.2,2.2,0.7S-96-198-96-197v5.2h-1.2v-5.1c0-0.7-0.2-1.2-0.5-1.5s-0.8-0.5-1.4-0.5
								c-0.9,0-1.5,0.3-1.9,0.8s-0.5,1.2-0.5,2.2v4.2h-1.2v-8h1l0.2,1.2h0.1c0.2-0.3,0.4-0.5,0.7-0.7c0.3-0.2,0.6-0.3,0.9-0.4
								C-99.6-199.9-99.2-199.9-98.9-199.9z"/>
							<path class="st2" d="M-91.2-188.1c-1.1,0-1.9-0.2-2.4-0.6c-0.6-0.4-0.9-0.9-0.9-1.7c0-0.5,0.2-0.9,0.5-1.3
								c0.3-0.4,0.8-0.6,1.3-0.7c-0.2-0.1-0.4-0.2-0.5-0.4s-0.2-0.4-0.2-0.7s0.1-0.6,0.2-0.8c0.2-0.2,0.4-0.4,0.8-0.6
								c-0.4-0.2-0.8-0.5-1-0.9c-0.3-0.4-0.4-0.9-0.4-1.4c0-0.6,0.1-1.1,0.4-1.5c0.2-0.4,0.6-0.7,1-0.9s1-0.3,1.6-0.3
								c0.1,0,0.3,0,0.4,0s0.3,0,0.4,0.1c0.1,0,0.2,0,0.3,0.1h2.8v0.8l-1.5,0.2c0.1,0.2,0.3,0.4,0.4,0.7s0.1,0.6,0.1,0.9
								c0,0.8-0.3,1.4-0.8,1.9s-1.3,0.7-2.2,0.7c-0.2,0-0.5,0-0.7-0.1c-0.2,0.1-0.4,0.3-0.5,0.4c-0.1,0.2-0.2,0.3-0.2,0.6
								c0,0.2,0,0.3,0.1,0.4c0.1,0.1,0.2,0.2,0.4,0.2c0.2,0,0.4,0.1,0.7,0.1h1.4c0.9,0,1.5,0.2,2,0.5c0.5,0.4,0.7,0.9,0.7,1.6
								c0,0.9-0.4,1.6-1.1,2C-88.8-188.4-89.9-188.1-91.2-188.1z M-91.2-189.1c0.7,0,1.2-0.1,1.7-0.2c0.4-0.1,0.8-0.3,1-0.6
								s0.3-0.6,0.3-0.9c0-0.3-0.1-0.6-0.2-0.7c-0.1-0.2-0.4-0.3-0.6-0.3c-0.3-0.1-0.6-0.1-1-0.1h-1.4c-0.4,0-0.7,0.1-0.9,0.2
								s-0.5,0.3-0.6,0.5s-0.2,0.5-0.2,0.8c0,0.4,0.2,0.8,0.5,1C-92.4-189.2-91.9-189.1-91.2-189.1z M-90.9-195.5
								c0.6,0,1-0.1,1.3-0.4s0.4-0.7,0.4-1.3s-0.1-1.1-0.4-1.4c-0.3-0.3-0.7-0.5-1.3-0.5c-0.6,0-1,0.2-1.3,0.5s-0.5,0.8-0.5,1.4
								c0,0.5,0.2,1,0.5,1.3S-91.5-195.5-90.9-195.5z"/>
							<path class="st2" d="M-82.2-199.9c0.7,0,1.3,0.2,1.8,0.5s0.9,0.7,1.1,1.3c0.3,0.5,0.4,1.2,0.4,1.9v0.8h-5.5
								c0,0.9,0.2,1.7,0.7,2.2s1.1,0.7,1.9,0.7c0.5,0,1,0,1.3-0.1c0.4-0.1,0.8-0.2,1.2-0.4v1.1c-0.4,0.2-0.8,0.3-1.2,0.4
								c-0.4,0.1-0.9,0.1-1.4,0.1c-0.8,0-1.4-0.2-2-0.5s-1-0.8-1.3-1.4s-0.5-1.4-0.5-2.2c0-0.9,0.1-1.6,0.4-2.2
								c0.3-0.6,0.7-1.1,1.2-1.5C-83.6-199.7-83-199.9-82.2-199.9z M-82.3-198.9c-0.6,0-1.2,0.2-1.6,0.6c-0.4,0.4-0.6,1-0.7,1.8h4.2
								c0-0.5-0.1-0.9-0.2-1.3c-0.1-0.4-0.4-0.6-0.7-0.8C-81.4-198.8-81.8-198.9-82.3-198.9z"/>
						</g>
					</g>
				</g>
				<path id="arrow7-3" class="st3" d="M-15-199.4c0,0.2,0.1,0.3,0.2,0.4l4.8,4.8c0.2,0.2,0.6,0.2,0.8,0l4.8-4.8
					c0.2-0.2,0.2-0.6,0-0.8s-0.6-0.2-0.8,0l-4.4,4.4l-4.4-4.4c-0.2-0.2-0.6-0.2-0.8,0C-14.9-199.7-15-199.6-15-199.4z"/>
			</g>
			<g id="Group_10545" transform="translate(360 303)">
				<g id="Rectangle_264-5" transform="translate(16 93)">
					<path class="st4" d="M-305-312h170c2.8,0,5,2.5,5,5.8v32.4c0,3.2-2.2,5.8-5,5.8h-170c-2.8,0-5-2.5-5-5.8v-32.4
						C-310-309.5-307.8-312-305-312z"/>
				</g>
				<g>
					<g>
						<g>
							<path class="st2" d="M-277.7-202.4c1.4,0,2.4,0.3,3,0.8s1,1.3,1,2.3c0,0.5-0.1,0.9-0.2,1.3c-0.1,0.4-0.4,0.8-0.7,1.1
								c-0.3,0.3-0.8,0.6-1.3,0.7c-0.5,0.2-1.2,0.3-2,0.3h-1.3v4.2h-1.2v-10.7L-277.7-202.4L-277.7-202.4z M-277.9-201.4h-1.4v4.4
								h1.2c0.7,0,1.3-0.1,1.7-0.2c0.5-0.1,0.8-0.4,1-0.7s0.3-0.8,0.3-1.3c0-0.7-0.2-1.2-0.7-1.6
								C-276.2-201.2-276.9-201.4-277.9-201.4z"/>
							<path class="st2" d="M-268-199.9c0.2,0,0.3,0,0.5,0s0.3,0,0.5,0.1l-0.2,1.1c-0.1,0-0.3-0.1-0.4-0.1s-0.3,0-0.5,0
								c-0.3,0-0.6,0.1-0.9,0.2c-0.3,0.1-0.5,0.3-0.8,0.6c-0.2,0.2-0.4,0.5-0.5,0.9c-0.1,0.3-0.2,0.7-0.2,1.1v4.3h-1.2v-8h1l0.1,1.5
								h0.1c0.2-0.3,0.4-0.6,0.6-0.8s0.5-0.4,0.8-0.6S-268.4-199.9-268-199.9z"/>
							<path class="st2" d="M-258.6-195.8c0,0.7-0.1,1.2-0.3,1.8c-0.2,0.5-0.4,1-0.7,1.3s-0.7,0.6-1.2,0.8s-1,0.3-1.5,0.3
								s-1-0.1-1.5-0.3c-0.4-0.2-0.8-0.5-1.2-0.8s-0.6-0.8-0.8-1.3c-0.2-0.5-0.3-1.1-0.3-1.8c0-0.9,0.1-1.6,0.4-2.2
								c0.3-0.6,0.7-1.1,1.3-1.4c0.6-0.3,1.2-0.5,2-0.5c0.7,0,1.4,0.2,1.9,0.5s1,0.8,1.3,1.4C-258.8-197.4-258.6-196.6-258.6-195.8z
								 M-264.8-195.8c0,0.6,0.1,1.2,0.3,1.7c0.2,0.5,0.4,0.8,0.8,1.1s0.8,0.4,1.4,0.4s1-0.1,1.4-0.4c0.4-0.3,0.6-0.6,0.8-1.1
								c0.2-0.5,0.3-1,0.3-1.7c0-0.6-0.1-1.2-0.3-1.7c-0.2-0.5-0.4-0.8-0.8-1.1s-0.8-0.4-1.4-0.4c-0.8,0-1.4,0.3-1.8,0.8
								C-264.6-197.5-264.8-196.7-264.8-195.8z"/>
							<path class="st2" d="M-252.8-199.9c1,0,1.8,0.3,2.4,1c0.6,0.7,0.9,1.7,0.9,3.1c0,0.9-0.1,1.7-0.4,2.3
								c-0.3,0.6-0.7,1.1-1.2,1.4c-0.5,0.3-1.1,0.5-1.8,0.5c-0.4,0-0.8-0.1-1.1-0.2c-0.3-0.1-0.6-0.3-0.8-0.5s-0.4-0.4-0.6-0.6h-0.1
								c0,0.2,0,0.4,0.1,0.7c0,0.3,0,0.5,0,0.7v3.3h-1.2v-11.6h1l0.2,1.2h0.1c0.2-0.2,0.3-0.5,0.6-0.7c0.2-0.2,0.5-0.4,0.8-0.5
								C-253.6-199.8-253.2-199.9-252.8-199.9z M-253-198.9c-0.6,0-1,0.1-1.3,0.3s-0.6,0.5-0.7,1c-0.2,0.4-0.2,1-0.2,1.6v0.2
								c0,0.7,0.1,1.3,0.2,1.7c0.1,0.5,0.4,0.8,0.7,1.1c0.3,0.2,0.8,0.4,1.4,0.4c0.5,0,0.9-0.1,1.2-0.4c0.3-0.3,0.6-0.6,0.7-1.1
								c0.2-0.5,0.2-1,0.2-1.7c0-0.9-0.2-1.7-0.6-2.3C-251.7-198.6-252.2-198.9-253-198.9z"/>
							<path class="st2" d="M-244.3-199.9c0.7,0,1.3,0.2,1.8,0.5s0.9,0.7,1.1,1.3c0.3,0.5,0.4,1.2,0.4,1.9v0.8h-5.5
								c0,0.9,0.2,1.7,0.7,2.2s1.1,0.7,1.9,0.7c0.5,0,1,0,1.3-0.1c0.4-0.1,0.8-0.2,1.2-0.4v1.1c-0.4,0.2-0.8,0.3-1.2,0.4
								c-0.4,0.1-0.9,0.1-1.4,0.1c-0.8,0-1.4-0.2-2-0.5s-1-0.8-1.3-1.4s-0.5-1.4-0.5-2.2c0-0.9,0.1-1.6,0.4-2.2
								c0.3-0.6,0.7-1.1,1.2-1.5C-245.6-199.7-245-199.9-244.3-199.9z M-244.3-198.9c-0.6,0-1.2,0.2-1.6,0.6c-0.4,0.4-0.6,1-0.7,1.8
								h4.2c0-0.5-0.1-0.9-0.2-1.3c-0.1-0.4-0.4-0.6-0.7-0.8C-243.5-198.8-243.8-198.9-244.3-198.9z"/>
							<path class="st2" d="M-235.3-199.9c0.2,0,0.3,0,0.5,0s0.3,0,0.5,0.1l-0.2,1.1c-0.1,0-0.3-0.1-0.4-0.1c-0.2,0-0.3,0-0.5,0
								c-0.3,0-0.6,0.1-0.9,0.2c-0.3,0.1-0.5,0.3-0.8,0.6c-0.2,0.2-0.4,0.5-0.5,0.9c-0.1,0.3-0.2,0.7-0.2,1.1v4.3h-1.2v-8h1l0.1,1.5
								h0.1c0.2-0.3,0.4-0.6,0.6-0.8c0.2-0.2,0.5-0.4,0.8-0.6C-236-199.8-235.7-199.9-235.3-199.9z"/>
							<path class="st2" d="M-230.2-192.6c0.2,0,0.4,0,0.6-0.1c0.2,0,0.4-0.1,0.5-0.1v0.9c-0.1,0.1-0.3,0.1-0.6,0.2
								c-0.3,0-0.5,0.1-0.7,0.1c-0.4,0-0.8-0.1-1.2-0.2c-0.3-0.1-0.6-0.4-0.8-0.8c-0.2-0.4-0.3-0.8-0.3-1.5v-4.8h-1.1v-0.6l1.2-0.5
								l0.5-1.7h0.7v1.9h2.4v1h-2.4v4.7c0,0.5,0.1,0.9,0.3,1.1C-230.9-192.7-230.6-192.6-230.2-192.6z"/>
							<path class="st2" d="M-228.7-199.8h1.3l1.8,4.7c0.1,0.3,0.2,0.5,0.3,0.8s0.2,0.5,0.2,0.7c0.1,0.2,0.1,0.5,0.2,0.7h0.1
								c0.1-0.2,0.2-0.6,0.3-1s0.3-0.8,0.4-1.2l1.7-4.7h1.3l-3.5,9.2c-0.2,0.5-0.4,0.9-0.6,1.3c-0.2,0.4-0.5,0.6-0.9,0.8
								s-0.8,0.3-1.3,0.3c-0.2,0-0.4,0-0.6,0c-0.2,0-0.3-0.1-0.5-0.1v-1c0.1,0,0.2,0,0.4,0.1c0.2,0,0.3,0,0.5,0
								c0.3,0,0.6-0.1,0.8-0.2c0.2-0.1,0.4-0.3,0.6-0.5c0.2-0.2,0.3-0.5,0.4-0.8l0.4-1.1L-228.7-199.8z"/>
							<path class="st2" d="M-213.5-192.6c0.2,0,0.4,0,0.6-0.1c0.2,0,0.4-0.1,0.5-0.1v0.9c-0.1,0.1-0.3,0.1-0.6,0.2
								c-0.3,0-0.5,0.1-0.7,0.1c-0.4,0-0.8-0.1-1.2-0.2c-0.3-0.1-0.6-0.4-0.8-0.8c-0.2-0.4-0.3-0.8-0.3-1.5v-4.8h-1.1v-0.6l1.2-0.5
								l0.5-1.7h0.7v1.9h2.4v1h-2.4v4.7c0,0.5,0.1,0.9,0.3,1.1C-214.2-192.7-213.8-192.6-213.5-192.6z"/>
							<path class="st2" d="M-212-199.8h1.3l1.8,4.7c0.1,0.3,0.2,0.5,0.3,0.8s0.2,0.5,0.2,0.7c0.1,0.2,0.1,0.5,0.2,0.7h0.1
								c0.1-0.2,0.2-0.6,0.3-1s0.3-0.8,0.4-1.2l1.7-4.7h1.3l-3.5,9.2c-0.2,0.5-0.4,0.9-0.6,1.3c-0.2,0.4-0.5,0.6-0.9,0.8
								s-0.8,0.3-1.3,0.3c-0.2,0-0.4,0-0.6,0c-0.2,0-0.3-0.1-0.5-0.1v-1c0.1,0,0.2,0,0.4,0.1c0.2,0,0.3,0,0.5,0
								c0.3,0,0.6-0.1,0.8-0.2c0.2-0.1,0.4-0.3,0.6-0.5c0.2-0.2,0.3-0.5,0.4-0.8l0.4-1.1L-212-199.8z"/>
							<path class="st2" d="M-199.4-199.9c1,0,1.8,0.3,2.4,1c0.6,0.7,0.9,1.7,0.9,3.1c0,0.9-0.1,1.7-0.4,2.3
								c-0.3,0.6-0.7,1.1-1.2,1.4c-0.5,0.3-1.1,0.5-1.8,0.5c-0.4,0-0.8-0.1-1.1-0.2c-0.3-0.1-0.6-0.3-0.8-0.5s-0.4-0.4-0.6-0.6h-0.1
								c0,0.2,0,0.4,0.1,0.7c0,0.3,0,0.5,0,0.7v3.3h-1.2v-11.6h1l0.2,1.2h0.1c0.2-0.2,0.3-0.5,0.6-0.7c0.2-0.2,0.5-0.4,0.8-0.5
								C-200.2-199.8-199.9-199.9-199.4-199.9z M-199.6-198.9c-0.6,0-1,0.1-1.3,0.3s-0.6,0.5-0.7,1c-0.2,0.4-0.2,1-0.2,1.6v0.2
								c0,0.7,0.1,1.3,0.2,1.7c0.1,0.5,0.4,0.8,0.7,1.1c0.3,0.2,0.8,0.4,1.4,0.4c0.5,0,0.9-0.1,1.2-0.4c0.3-0.3,0.6-0.6,0.7-1.1
								c0.2-0.5,0.2-1,0.2-1.7c0-0.9-0.2-1.7-0.6-2.3C-198.3-198.6-198.9-198.9-199.6-198.9z"/>
							<path class="st2" d="M-190.9-199.9c0.7,0,1.3,0.2,1.8,0.5s0.9,0.7,1.1,1.3c0.3,0.5,0.4,1.2,0.4,1.9v0.8h-5.5
								c0,0.9,0.2,1.7,0.7,2.2s1.1,0.7,1.9,0.7c0.5,0,1,0,1.3-0.1c0.4-0.1,0.8-0.2,1.2-0.4v1.1c-0.4,0.2-0.8,0.3-1.2,0.4
								c-0.4,0.1-0.9,0.1-1.4,0.1c-0.8,0-1.4-0.2-2-0.5s-1-0.8-1.3-1.4s-0.5-1.4-0.5-2.2c0-0.9,0.1-1.6,0.4-2.2
								c0.3-0.6,0.7-1.1,1.2-1.5C-192.3-199.7-191.6-199.9-190.9-199.9z M-190.9-198.9c-0.6,0-1.2,0.2-1.6,0.6
								c-0.4,0.4-0.6,1-0.7,1.8h4.2c0-0.5-0.1-0.9-0.2-1.3c-0.1-0.4-0.4-0.6-0.7-0.8C-190.1-198.8-190.5-198.9-190.9-198.9z"/>
						</g>
					</g>
				</g>
				<path id="arrow7-4" d="M-137-199.4c0,0.2,0.1,0.3,0.2,0.4l4.8,4.8c0.2,0.2,0.6,0.2,0.8,0l4.8-4.8c0.2-0.2,0.2-0.6,0-0.8
					s-0.6-0.2-0.8,0l-4.4,4.4l-4.4-4.4c-0.2-0.2-0.6-0.2-0.8,0C-136.9-199.7-137-199.6-137-199.4z"/>
			</g>
		</g>
		<g id="Group_10617" transform="translate(-1 -4)">
			<path id="Rectangle_621" class="st5" d="M750,149L750,149c9.9,0,18,8.1,18,18l0,0c0,9.9-8.1,18-18,18l0,0c-9.9,0-18-8.1-18-18
				l0,0C732,157.1,740.1,149,750,149z"/>
			<path id="search3" class="st1" d="M758.4,173.6l-3.3-3.4c2.6-3.1,2.2-7.8-0.9-10.4s-7.8-2.2-10.4,0.9s-2.2,7.8,0.9,10.4
				c1.3,1.1,3,1.7,4.8,1.7c1.5,0,3-0.5,4.3-1.4l3.3,3.4c0.2,0.2,0.4,0.3,0.7,0.3c0.2,0,0.5-0.1,0.7-0.3
				C758.7,174.5,758.7,173.9,758.4,173.6z M749.4,159.8c3.1,0,5.6,2.5,5.6,5.6s-2.5,5.6-5.6,5.6s-5.6-2.5-5.6-5.6
				S746.3,159.8,749.4,159.8L749.4,159.8z"/>
		</g>
	</g>
	<g id="Group_10709" transform="translate(203 81.5)">
		<g id="Rectangle_49" transform="translate(117 395)">
			<path class="st1" d="M-307-318h8c1.7,0,3,1.3,3,3v8c0,1.7-1.3,3-3,3h-8c-1.7,0-3-1.3-3-3v-8C-310-316.7-308.7-318-307-318z"/>
			<path class="st6" d="M-307-317.5h8c1.4,0,2.5,1.1,2.5,2.5v8c0,1.4-1.1,2.5-2.5,2.5h-8c-1.4,0-2.5-1.1-2.5-2.5v-8
				C-309.5-316.4-308.4-317.5-307-317.5z"/>
		</g>
		<text transform="matrix(1 0 0 1 -173.266 89.5173)" class="st1 st7 st8">BUY</text>
		<g id="Rectangle_51" transform="translate(197 395)">
			<path class="st1" d="M-307-318h8c1.7,0,3,1.3,3,3v8c0,1.7-1.3,3-3,3h-8c-1.7,0-3-1.3-3-3v-8C-310-316.7-308.7-318-307-318z"/>
			<path class="st6" d="M-307-317.5h8c1.4,0,2.5,1.1,2.5,2.5v8c0,1.4-1.1,2.5-2.5,2.5h-8c-1.4,0-2.5-1.1-2.5-2.5v-8
				C-309.5-316.4-308.4-317.5-307-317.5z"/>
		</g>
		<path id="Rectangle_48" class="st5" d="M-189,80h6c0.6,0,1,0.4,1,1v6c0,0.6-0.4,1-1,1h-6c-0.6,0-1-0.4-1-1v-6
			C-190,80.4-189.6,80-189,80z"/>
		<text transform="matrix(1 0 0 1 -93.266 89.5173)" class="st1 st7 st8">RENT</text>
	</g>
</g>
</svg>
